<svg xmlns="http://www.w3.org/2000/svg" viewBox="0 0 455.308 455.308" width="42" height="42"><path d="M368.692 141.038C368.692 63.269 305.422 0 227.654 0S86.616 63.269 86.616 141.038c0 71.844 53.997 131.308 123.538 139.953v70.644h-44.27c-9.665 0-17.5 7.835-17.5 17.5s7.835 17.5 17.5 17.5h44.27v51.173c0 9.665 7.835 17.5 17.5 17.5s17.5-7.835 17.5-17.5v-51.173h44.269c9.665 0 17.5-7.835 17.5-17.5s-7.835-17.5-17.5-17.5h-44.269v-70.644c69.541-8.645 123.538-68.109 123.538-139.953zm-247.076 0C121.616 82.568 169.184 35 227.654 35s106.038 47.568 106.038 106.038-47.568 106.038-106.038 106.038-106.038-47.568-106.038-106.038z" fill="#d381e3"/></svg>