<svg xmlns="http://www.w3.org/2000/svg" viewBox="0 0 228.092 228.092" width="42" height="42"><path d="M228.089 7.51v-.009A7.5 7.5 0 0 0 220.59 0h-.001c-.065 0-.128.008-.193.01h-43.938a7.5 7.5 0 0 0 0 15h26.021l-44.507 44.505c-17.326-14.849-39.142-22.949-62.204-22.949-25.582 0-49.631 9.963-67.715 28.053C9.965 82.701.003 106.746.003 132.325c0 25.578 9.961 49.626 28.048 67.715 18.085 18.09 42.133 28.053 67.713 28.053 25.58 0 49.629-9.963 67.716-28.053 18.085-18.085 28.046-42.133 28.047-67.712.002-23.065-8.099-44.882-22.949-62.206l44.508-44.507-.002 26.024a7.499 7.499 0 0 0 7.499 7.5h.001a7.5 7.5 0 0 0 7.5-7.5l.005-44.129zm-75.215 181.924c-15.254 15.256-35.536 23.659-57.109 23.659s-41.853-8.402-57.106-23.659c-15.255-15.256-23.656-35.538-23.656-57.109 0-21.571 8.4-41.849 23.656-57.099 15.252-15.257 35.534-23.66 57.108-23.66 21.572 0 41.853 8.4 57.107 23.654 15.255 15.251 23.655 35.531 23.653 57.107 0 21.572-8.401 41.854-23.653 57.107z" fill="#006DF0"/></svg>