<svg xmlns="http://www.w3.org/2000/svg" viewBox="0 0 325.641 325.641"><path d="M301.868 107.328c.501-3.863.752-7.507.752-11.054 0-49.114-39.956-89.057-89.069-89.057-29.409 0-57.032 14.769-73.536 38.934a58.507 58.507 0 0 0-26.883-6.51c-30.482 0-55.618 23.349-58.458 53.323C23.137 98.356 0 125.388 0 157.991c0 36.414 29.634 66.042 66.055 66.042h193.538c36.414 0 66.049-29.628 66.049-66.042.006-19.808-8.606-38.06-23.774-50.663zm-42.275 103.851H66.061c-29.332 0-53.201-23.863-53.201-53.188 0-27.777 20.868-50.534 48.548-52.938l5.855-.771v-5.893c0-25.309 20.579-45.894 45.881-45.894a45.709 45.709 0 0 1 25.425 7.693l5.688 3.798 3.432-5.913c13.631-23.439 38.869-38.002 65.875-38.002 42.025 0 76.216 34.184 76.216 76.203 0 3.972-.379 8.136-1.157 12.725l-.656 3.895 3.175 2.339c13.76 10.167 21.652 25.752 21.652 42.745 0 29.339-23.863 53.201-53.201 53.201zM87.572 245.627l-.206 66.389a6.426 6.426 0 0 1-6.427 6.408h-.019a6.426 6.426 0 0 1-6.408-6.446l.206-66.383a6.426 6.426 0 0 1 6.427-6.408h.019a6.42 6.42 0 0 1 6.408 6.44zm43.201-.026l-.141 46.37a6.426 6.426 0 0 1-6.427 6.408h-.019a6.426 6.426 0 0 1-6.408-6.446l.141-46.37a6.426 6.426 0 0 1 6.427-6.408h.019a6.425 6.425 0 0 1 6.408 6.446zm43.253-.032l-.212 66.383a6.426 6.426 0 0 1-6.427 6.408h-.013c-3.554-.013-6.427-2.898-6.414-6.446l.212-66.383a6.426 6.426 0 0 1 6.427-6.408h.026a6.42 6.42 0 0 1 6.401 6.446zm43.207-.025l-.148 46.37a6.426 6.426 0 0 1-6.427 6.408h-.013c-3.554-.013-6.427-2.899-6.414-6.446l.148-46.37c.013-3.554 2.699-6.645 6.44-6.408 3.548.012 6.427 2.898 6.414 6.446zm43.24-.033l-.199 66.383a6.426 6.426 0 0 1-6.427 6.408h-.026a6.42 6.42 0 0 1-6.401-6.446l.199-66.383a6.426 6.426 0 0 1 6.427-6.408h.026a6.42 6.42 0 0 1 6.401 6.446z"/></svg>