<svg width="25" height="25" viewBox="0 0 25 25" xmlns="http://www.w3.org/2000/svg"><title>Status</title><path d="M25 12.467C25 5.64 19.462.08 12.63.013A.61.61 0 0 0 12.504 0c-.125 0-.246.012-.37.019C5.417.215.01 5.72.01 12.467c0 6.827 5.538 12.387 12.37 12.454a.62.62 0 0 0 .125.013c.124 0 .246-.012.368-.02C19.593 24.72 25 19.213 25 12.468zm-23.764 0c0-4.386 2.536-8.19 6.221-10.04A6.592 6.592 0 0 0 5.99 6.582c0 3.582 2.923 6.496 6.516 6.496 2.916 0 5.289 2.366 5.289 5.273 0 2.83-2.177 5.149-4.923 5.34-.122.005-.243.01-.366.01-6.214 0-11.269-5.04-11.269-11.234z" fill="#FFF" fill-rule="evenodd"/></svg>