<?xml version="1.0" encoding="UTF-8" standalone="no"?>
<svg width="28px" height="28px" viewBox="0 0 28 28" version="1.1" xmlns="http://www.w3.org/2000/svg" xmlns:xlink="http://www.w3.org/1999/xlink">
    <!-- Generator: Sketch 3.6.1 (26313) - http://www.bohemiancoding.com/sketch -->
    <title>Physical</title>
    <desc>Created with Sketch.</desc>
    <defs></defs>
    <g id="Page-1" stroke="none" stroke-width="1" fill="none" fill-rule="evenodd">
        <g id="Physical" transform="translate(-6.000000, -6.000000)" stroke="#FFCC00" fill="#FFCC00">
            <g id="Group" transform="translate(6.000000, 6.000000)">
                <polygon id="Triangle-1" points="13.5 0 16 14 11 14 "></polygon>
                <polygon id="Triangle-1-Copy-3" transform="translate(21.000000, 13.500000) rotate(-270.000000) translate(-21.000000, -13.500000) " points="21 6.5 23.5 20.5 18.5 20.5 "></polygon>
                <polygon id="Triangle-1-Copy-4" transform="translate(7.000000, 13.500000) rotate(-90.000000) translate(-7.000000, -13.500000) " points="7 6.5 9.5 20.5 4.5 20.5 "></polygon>
                <polygon id="Triangle-1-Copy" transform="translate(13.500000, 21.000000) rotate(-180.000000) translate(-13.500000, -21.000000) " points="13.5 14 16 28 11 28 "></polygon>
            </g>
            <g id="Group-Copy" transform="translate(20.000000, 20.000000) rotate(-315.000000) translate(-20.000000, -20.000000) translate(6.000000, 6.000000)">
                <polygon id="Triangle-1" points="13.5 0 16 14 11 14 "></polygon>
                <polygon id="Triangle-1-Copy-3" transform="translate(21.000000, 13.500000) rotate(-270.000000) translate(-21.000000, -13.500000) " points="21 6.5 23.5 20.5 18.5 20.5 "></polygon>
                <polygon id="Triangle-1-Copy-4" transform="translate(7.000000, 13.500000) rotate(-90.000000) translate(-7.000000, -13.500000) " points="7 6.5 9.5 20.5 4.5 20.5 "></polygon>
                <polygon id="Triangle-1-Copy" transform="translate(13.500000, 21.000000) rotate(-180.000000) translate(-13.500000, -21.000000) " points="13.5 14 16 28 11 28 "></polygon>
            </g>
        </g>
    </g>
</svg>